<svg width="655" height="129" viewBox="0 0 655 129" fill="none" xmlns="http://www.w3.org/2000/svg">
<g clip-path="url(#clip0_25_878)">
<path d="M168.198 51.7969H180.134L189.925 79.4702L200.476 51.7969H207.763L218.09 79.1572L227.881 51.7969H239.907L222.158 100.438H214.424L204.052 72.7195L193.367 100.438H185.722L168.198 51.7969ZM295.566 79.649H256.359C256.925 83.1063 258.43 85.8632 260.874 87.9197C263.348 89.9464 266.492 90.9597 270.307 90.9597C274.867 90.9597 278.786 89.3652 282.065 86.1762L292.347 91.0044C289.784 94.6406 286.714 97.3379 283.138 99.0963C279.561 100.825 275.314 101.689 270.396 101.689C262.766 101.689 256.552 99.29 251.754 94.4915C246.955 89.6633 244.556 83.6279 244.556 76.3855C244.556 68.9642 246.94 62.8096 251.709 57.9217C256.508 53.004 262.513 50.5451 269.726 50.5451C277.385 50.5451 283.615 53.004 288.413 57.9217C293.212 62.8096 295.611 69.2771 295.611 77.3243L295.566 79.649ZM283.317 70.0371C282.512 67.325 280.917 65.1194 278.533 63.4206C276.178 61.7217 273.436 60.8723 270.307 60.8723C266.909 60.8723 263.929 61.8261 261.366 63.7335C259.756 64.9257 258.266 67.0269 256.895 70.0371H283.317ZM341.435 33.0202H353.595V100.438H341.435V95.2963C339.051 97.5614 336.651 99.2006 334.237 100.214C331.853 101.198 329.26 101.689 326.458 101.689C320.17 101.689 314.73 99.2602 310.14 94.4021C305.551 89.5142 303.256 83.4491 303.256 76.2066C303.256 68.6959 305.476 62.5414 309.917 57.7429C314.358 52.9444 319.752 50.5451 326.101 50.5451C329.021 50.5451 331.763 51.0965 334.327 52.1993C336.89 53.302 339.259 54.9562 341.435 57.1617V33.0202ZM328.604 61.8112C324.819 61.8112 321.675 63.1524 319.171 65.8347C316.667 68.4873 315.416 71.8999 315.416 76.0725C315.416 80.2749 316.682 83.7322 319.216 86.4444C321.779 89.1566 324.923 90.5127 328.649 90.5127C332.494 90.5127 335.683 89.1864 338.216 86.5338C340.749 83.8514 342.016 80.3494 342.016 76.0278C342.016 71.7956 340.749 68.3681 338.216 65.7453C335.683 63.1225 332.479 61.8112 328.604 61.8112ZM360.524 51.7969H372.461L382.252 79.4702L392.803 51.7969H400.09L410.417 79.1572L420.208 51.7969H432.234L414.485 100.438H406.751L396.379 72.7195L385.694 100.438H378.049L360.524 51.7969ZM462.008 50.5451C466.598 50.5451 470.905 51.6926 474.928 53.9875C478.982 56.2825 482.141 59.397 484.406 63.3312C486.671 67.2653 487.804 71.5125 487.804 76.0725C487.804 80.6624 486.656 84.9542 484.361 88.948C482.096 92.9417 478.996 96.0712 475.062 98.3363C471.128 100.572 466.792 101.689 462.053 101.689C455.079 101.689 449.118 99.2155 444.17 94.268C439.252 89.2907 436.794 83.2553 436.794 76.1619C436.794 68.5618 439.58 62.2284 445.154 57.1617C450.042 52.7507 455.66 50.5451 462.008 50.5451ZM462.187 62.0347C458.402 62.0347 455.242 63.361 452.709 66.0136C450.206 68.6363 448.954 72.0042 448.954 76.1172C448.954 80.3494 450.191 83.7769 452.664 86.3997C455.168 89.0225 458.327 90.3339 462.142 90.3339C465.957 90.3339 469.131 89.0076 471.665 86.355C474.198 83.7024 475.465 80.2898 475.465 76.1172C475.465 71.9446 474.213 68.5618 471.709 65.9689C469.236 63.3461 466.061 62.0347 462.187 62.0347ZM494.957 51.7969H505.418V57.9217C506.551 55.5076 508.056 53.6746 509.933 52.4228C511.811 51.171 513.867 50.5451 516.103 50.5451C517.682 50.5451 519.337 50.9624 521.065 51.7969L517.265 62.3029C515.835 61.5876 514.657 61.23 513.733 61.23C511.856 61.23 510.261 62.3923 508.95 64.7171C507.668 67.0418 507.027 71.6019 507.027 78.3972L507.072 80.7667V100.438H494.957V51.7969ZM563.089 33.0202H575.249V100.438H563.089V95.2963C560.705 97.5614 558.306 99.2006 555.892 100.214C553.507 101.198 550.914 101.689 548.113 101.689C541.824 101.689 536.385 99.2602 531.795 94.4021C527.205 89.5142 524.91 83.4491 524.91 76.2066C524.91 68.6959 527.13 62.5414 531.571 57.7429C536.012 52.9444 541.407 50.5451 547.755 50.5451C550.676 50.5451 553.418 51.0965 555.981 52.1993C558.544 53.302 560.914 54.9562 563.089 57.1617V33.0202ZM550.258 61.8112C546.473 61.8112 543.329 63.1524 540.825 65.8347C538.322 68.4873 537.07 71.8999 537.07 76.0725C537.07 80.2749 538.337 83.7322 540.87 86.4444C543.433 89.1566 546.578 90.5127 550.303 90.5127C554.148 90.5127 557.337 89.1864 559.87 86.5338C562.404 83.8514 563.67 80.3494 563.67 76.0278C563.67 71.7956 562.404 68.3681 559.87 65.7453C557.337 63.1225 554.133 61.8112 550.258 61.8112ZM582.179 51.7969H594.652L607.304 82.3314L621.252 51.7969H633.77L603.28 118.231H590.673L600.687 96.8163L582.179 51.7969ZM647.361 87.6962C649.298 87.6962 650.952 88.3817 652.323 89.7527C653.694 91.0939 654.38 92.7331 654.38 94.6704C654.38 96.6077 653.694 98.2618 652.323 99.6328C650.952 101.004 649.298 101.689 647.361 101.689C645.424 101.689 643.769 101.004 642.398 99.6328C641.027 98.2618 640.342 96.6077 640.342 94.6704C640.342 92.7331 641.027 91.0939 642.398 89.7527C643.769 88.3817 645.424 87.6962 647.361 87.6962Z" fill="#CC8866"/>
<g clip-path="url(#clip1_25_878)">
<path fill-rule="evenodd" clip-rule="evenodd" d="M94.8625 22.9909C94.9939 22.7284 95.1273 22.4618 95.2628 22.1908C102.665 7.38999 112.805 1.71048 121.459 0.721203C142.678 -1.70436 154.396 14.6009 150.759 34.0018C149.464 40.9056 146.116 49.3903 137.421 61.8893C133.603 67.3779 129.555 72.4762 125.496 77.5894C119.61 85.0032 113.7 92.4483 108.428 101.16C104.372 108.215 100.306 116.263 96.2198 125.858C95.7997 126.845 94.8898 127.536 93.8268 127.676C92.7638 127.817 91.7057 127.385 91.044 126.541C90.8176 126.253 90.5808 125.954 90.3341 125.646C87.8927 123.345 75.6149 111.615 64.3517 97.9508C61.4232 104.714 58.7102 112 56.2872 119.972C55.9522 121.074 55.0211 121.891 53.8845 122.081C52.7479 122.27 51.6021 121.799 50.9276 120.865C50.5588 120.354 50.191 119.844 49.8243 119.335C42.9488 111.789 14.8388 80.5262 6.87708 65.1335C-2.21676 47.5522 -0.398074 36.0334 0.814531 29.9708C2.02714 23.9083 8.08966 9.35776 23.246 9.35789C38.0793 9.35802 44.117 19.3985 46.4111 25.4645C51.6217 16.0696 60.7664 9.98995 68.7151 9.35841C80.5439 8.41859 90.6847 12.3343 94.8625 22.9909ZM82.5608 47.1936C82.6011 47.095 82.6339 47.0123 82.6589 46.9463C89.3277 29.365 80.2339 22.0899 72.7593 23.5994C65.2847 25.1088 58.2092 32.087 57.603 49.062C57.2925 57.7553 61.8044 69.2327 66.2808 78.3627C68.3541 74.3443 70.3815 70.602 72.2684 67.119C74.3223 63.3277 76.2097 59.8437 77.8087 56.6456C79.6965 52.87 81.2359 49.8115 82.5608 47.1936ZM59.6711 92.067C53.939 84.5767 48.9298 76.8379 46.2837 69.984C42.0405 58.9934 40.4662 51.4523 40.5065 45.386C40.4505 45.1374 40.4206 44.7824 40.4206 44.3074C40.4206 24.694 27.2443 23.9337 23.246 28.5449C17.9892 34.6074 18.5955 41.8824 21.6268 54.0075C24.3435 64.8744 29.008 72.8194 36.0569 84.8256L36.0583 84.8281L36.0626 84.8354C36.877 86.2226 37.7232 87.6639 38.6018 89.1702C40.7315 92.8209 43.2875 96.6372 45.7295 100.283C48.3048 104.128 50.7534 107.784 52.4415 110.857C53.5999 107.37 56.1407 100.092 59.6711 92.067ZM70.4098 86.2412C72.9119 90.7327 74.7776 93.6278 74.7776 93.6278L92.8799 118.368C95.9063 111.648 98.9287 105.694 101.943 100.306L101.888 100.281C106.619 90.8178 111.753 82.5536 116.281 75.2631C118.716 71.3437 120.975 67.7058 122.904 64.3143C123.106 63.958 123.306 63.6075 123.502 63.2626C131.826 48.6278 134.418 44.0716 135.602 34.0018C136.815 23.6947 128.128 20.1495 121.459 21.4829C114.79 22.8163 107.515 29.3642 100.24 39.6705C92.965 49.9768 83.8713 64.5269 74.1712 80.2895C72.9547 82.2663 71.6905 84.2622 70.4098 86.2412Z" fill="#CC8866"/>
</g>
</g>
<defs>
<clipPath id="clip0_25_878">
<rect width="655" height="129" fill="white"/>
</clipPath>
<clipPath id="clip1_25_878">
<rect width="151.613" height="151.613" fill="white" transform="translate(-0.198364 -11.0544)"/>
</clipPath>
</defs>
</svg>
