<svg width="84" height="84" viewBox="0 0 84 84" fill="none" xmlns="http://www.w3.org/2000/svg">
<path fill-rule="evenodd" clip-rule="evenodd" d="M52.6676 18.8626C52.7404 18.7171 52.8143 18.5694 52.8894 18.4193C56.9906 10.219 62.6083 7.07234 67.4031 6.52424C79.1593 5.18038 85.6517 14.2141 83.6363 24.963C82.9192 28.788 81.0641 33.4889 76.2468 40.4138C74.1314 43.4547 71.8889 46.2794 69.6399 49.1124C66.379 53.2199 63.1043 57.3448 60.1832 62.1712C57.9361 66.08 55.6836 70.5393 53.4196 75.8552C53.1868 76.4018 52.6827 76.7848 52.0938 76.8625C51.5048 76.9402 50.9186 76.7012 50.552 76.2337C50.4266 76.0737 50.2953 75.9084 50.1587 75.7379C48.806 74.4631 42.0036 67.9639 35.7634 60.3934C34.1409 64.1407 32.6377 68.177 31.2953 72.5938C31.1097 73.2046 30.5939 73.6575 29.9641 73.7624C29.3344 73.8674 28.6996 73.6063 28.3259 73.0887C28.1215 72.8057 27.9178 72.5231 27.7146 72.241C23.9053 68.0605 8.33122 50.7394 3.92009 42.2113C-1.11828 32.4705 -0.110648 26.0886 0.561185 22.7297C1.23302 19.3708 4.59191 11.3092 12.9891 11.3093C21.2074 11.3094 24.5525 16.8722 25.8235 20.233C28.7104 15.0279 33.777 11.6595 38.1809 11.3096C44.7345 10.7889 50.3529 12.9584 52.6676 18.8626ZM45.852 32.2719C45.8743 32.2172 45.8924 32.1714 45.9063 32.1348C49.6011 22.3941 44.5627 18.3634 40.4215 19.1997C36.2803 20.036 32.3602 23.9021 32.0243 33.307C31.8523 38.1235 34.352 44.4824 36.8322 49.5408C37.9809 47.3144 39.1041 45.241 40.1495 43.3113C41.2875 41.2108 42.3332 39.2805 43.2191 37.5086C44.265 35.4168 45.1179 33.7222 45.852 32.2719ZM33.1701 57.1335C29.9943 52.9836 27.219 48.696 25.753 44.8986C23.4021 38.8094 22.5298 34.6313 22.5522 31.2703C22.5211 31.1326 22.5046 30.9359 22.5046 30.6728C22.5046 19.8061 15.2043 19.3849 12.9891 21.9397C10.0767 25.2986 10.4126 29.3292 12.092 36.047C13.5972 42.0677 16.1815 46.4696 20.0869 53.1215L20.0877 53.1229L20.0901 53.127C20.5413 53.8955 21.0101 54.694 21.4969 55.5286C22.6768 57.5512 24.0929 59.6656 25.4459 61.6857C26.8727 63.816 28.2294 65.8415 29.1646 67.544C29.8065 65.612 31.2141 61.5795 33.1701 57.1335ZM39.1198 53.9058C40.5061 56.3943 41.5398 57.9983 41.5398 57.9983L51.5692 71.7051C53.2459 67.9821 54.9204 64.6837 56.5903 61.698L56.5599 61.6842C59.1813 56.4414 62.0254 51.8627 64.5344 47.8235C65.8832 45.652 67.1352 43.6364 68.2036 41.7574C68.3159 41.56 68.4263 41.3658 68.535 41.1747C73.147 33.0665 74.5828 30.5421 75.2391 24.963C75.9109 19.2525 71.0979 17.2883 67.4031 18.0271C63.7083 18.7658 59.6777 22.3936 55.647 28.1037C51.6163 33.8139 46.578 41.8752 41.2038 50.6083C40.5298 51.7035 39.8294 52.8093 39.1198 53.9058Z" fill="#CC8866"/>
</svg>
