<svg width="64" height="64" viewBox="0 0 64 64" fill="none" xmlns="http://www.w3.org/2000/svg">
<path fill-rule="evenodd" clip-rule="evenodd" d="M40.1277 14.3714C40.1832 14.2606 40.2395 14.1481 40.2967 14.0337C43.4214 7.78589 47.7016 5.38842 51.3548 4.97082C60.3118 3.94692 65.2584 10.8298 63.7229 19.0194C63.1765 21.9337 61.7631 25.5153 58.0928 30.7915C56.481 33.1083 54.7725 35.2605 53.059 37.4189C50.5745 40.5485 48.0795 43.6912 45.8539 47.3685C44.1418 50.3467 42.4256 53.7442 40.7007 57.7944C40.5233 58.2108 40.1392 58.5026 39.6905 58.5619C39.2418 58.6211 38.7951 58.4389 38.5158 58.0828C38.4202 57.9609 38.3203 57.835 38.2162 57.705C37.1855 56.7337 32.0028 51.782 27.2483 46.014C26.0121 48.869 24.8668 51.9443 23.8441 55.3095C23.7026 55.7749 23.3096 56.1199 22.8298 56.1999C22.35 56.2799 21.8664 56.081 21.5816 55.6866C21.4259 55.471 21.2707 55.2557 21.1159 55.0407C18.2136 51.8556 6.3476 38.6586 2.98673 32.161C-0.852019 24.7394 -0.0843029 19.877 0.42757 17.3179C0.939442 14.7587 3.49859 8.61653 9.89648 8.61659C16.158 8.61664 18.7067 12.855 19.6751 15.4156C21.8746 11.4498 25.7349 8.8834 29.0902 8.61681C34.0834 8.22009 38.3641 9.87302 40.1277 14.3714ZM34.9348 24.5881C34.9518 24.5464 34.9657 24.5115 34.9762 24.4837C37.7913 17.0621 33.9526 13.9911 30.7973 14.6283C27.6421 15.2655 24.6554 18.2111 24.3995 25.3768C24.2684 29.0464 26.173 33.8913 28.0626 37.7453C28.9378 36.0491 29.7936 34.4693 30.5901 32.9991C31.4571 31.3987 32.2539 29.928 32.9288 28.578C33.7257 26.9842 34.3755 25.6931 34.9348 24.5881ZM25.2725 43.5303C22.8528 40.3684 20.7383 37.1017 19.6213 34.2085C17.8302 29.569 17.1656 26.3858 17.1826 23.825C17.159 23.7201 17.1463 23.5702 17.1463 23.3697C17.1463 15.0903 11.5843 14.7694 9.89648 16.7159C7.67746 19.2751 7.93338 22.3461 9.21296 27.4644C10.3598 32.0515 12.3288 35.4054 15.3043 40.4735L15.3049 40.4745L15.3067 40.4776C15.6505 41.0632 16.0077 41.6716 16.3786 42.3074C17.2776 43.8485 18.3565 45.4595 19.3874 46.9986C20.4745 48.6216 21.5081 50.1649 22.2207 51.4621C22.7097 49.99 23.7822 46.9177 25.2725 43.5303ZM29.8055 41.0711C30.8618 42.9671 31.6493 44.1891 31.6493 44.1891L39.2908 54.6324C40.5683 51.7958 41.8441 49.2828 43.1164 47.008L43.0933 46.9975C45.0905 43.003 47.2574 39.5144 49.169 36.4369C50.1967 34.7824 51.1506 33.2468 51.9647 31.8151C52.0502 31.6647 52.1343 31.5168 52.2171 31.3712C55.731 25.1935 56.825 23.2702 57.325 19.0194C57.8369 14.6685 54.1698 13.172 51.3548 13.7349C48.5397 14.2978 45.4687 17.0618 42.3977 21.4123C39.3267 25.7629 35.488 31.9049 31.3933 38.5587C30.8798 39.3931 30.3462 40.2356 29.8055 41.0711Z" fill="#FDFCFC"/>
</svg>
